<?xml version="1.0" standalone="no"?>
<!DOCTYPE svg PUBLIC "-//W3C//DTD SVG 20010904//EN"
 "http://www.w3.org/TR/2001/REC-SVG-20010904/DTD/svg10.dtd">
<svg version="1.0" xmlns="http://www.w3.org/2000/svg"
 width="1640.000000pt" height="664.000000pt" viewBox="0 0 1640.000000 664.000000"
 preserveAspectRatio="xMidYMid meet">

<g transform="translate(0.000000,664.000000) scale(0.100000,-0.100000)"
fill="#000000" stroke="none">
<path d="M7105 4296 c-174 -34 -353 -121 -505 -244 -251 -205 -451 -546 -560
-955 -17 -65 -30 -125 -28 -135 2 -9 34 60 72 153 139 344 275 572 439 738
106 107 194 171 326 238 147 74 229 94 396 94 119 0 151 -3 215 -23 83 -26
192 -79 259 -125 89 -61 251 -231 251 -263 0 -5 -35 -27 -77 -48 -55 -29 -101
-64 -164 -125 -175 -172 -294 -419 -321 -668 -32 -283 78 -494 287 -548 74
-19 132 -19 214 0 185 44 325 187 390 397 62 203 40 516 -53 773 l-24 65 37 0
c147 0 439 -153 784 -411 195 -146 341 -273 547 -476 l175 -172 -70 20 c-148
42 -263 61 -392 66 -120 5 -133 4 -139 -12 -13 -33 -2 -38 451 -220 319 -128
338 -135 384 -135 52 0 97 37 112 93 15 54 6 201 -20 332 -39 200 -133 431
-241 590 -54 79 -104 130 -118 121 -12 -7 -10 -19 38 -176 70 -226 121 -467
120 -563 l-1 -42 -27 35 c-370 475 -1081 1020 -1457 1115 -69 18 -125 25 -190
25 l-92 0 -39 57 c-131 192 -363 353 -602 419 -78 22 -288 27 -377 10z m983
-748 c70 -186 102 -412 82 -570 -29 -240 -127 -379 -295 -423 -67 -17 -120
-13 -175 15 -45 23 -64 45 -89 101 -96 217 56 648 295 837 44 35 138 90 156
92 4 0 15 -24 26 -52z"/>
</g>
</svg>
